<?xml version="1.0" standalone="no"?>
<!DOCTYPE svg PUBLIC "-//W3C//DTD SVG 20010904//EN"
 "http://www.w3.org/TR/2001/REC-SVG-20010904/DTD/svg10.dtd">
<svg version="1.0" xmlns="http://www.w3.org/2000/svg"
 width="500.000000pt" height="500.000000pt" viewBox="0 0 500.000000 500.000000"
 preserveAspectRatio="xMidYMid meet">
<metadata>
Created by potrace 1.14, written by Peter Selinger 2001-2017
</metadata>
<g transform="translate(0.000000,500.000000) scale(0.100000,-0.100000)"
fill="#000000" stroke="none">
<path d="M1805 4135 c-224 -62 -415 -253 -470 -470 -24 -96 -20 -246 10 -351
32 -110 88 -230 160 -340 53 -82 55 -84 94 -84 44 0 132 16 171 31 50 19 55
38 60 266 7 279 -12 258 228 258 157 0 180 -2 205 -19 55 -37 62 -64 63 -252
0 -187 8 -223 52 -244 18 -9 89 -14 207 -17 99 -2 193 -9 208 -15 52 -20 57
-46 57 -287 0 -143 -4 -229 -11 -245 -22 -48 -60 -56 -264 -56 -114 0 -194 -4
-207 -11 -27 -14 -48 -69 -48 -123 l0 -45 120 -90 c66 -50 126 -91 132 -91 23
0 295 213 478 376 391 347 654 687 747 969 23 70 27 97 27 210 0 116 -3 138
-26 203 -37 104 -83 176 -158 252 -127 127 -278 190 -453 190 -60 0 -128 -6
-162 -15 -181 -47 -336 -170 -421 -335 l-31 -60 -34 67 c-46 90 -170 215 -264
266 -104 57 -189 77 -315 76 -58 0 -127 -7 -155 -14z"/>
<path d="M2248 1801 l3 -99 -40 11 c-52 14 -115 -4 -152 -44 -78 -84 -50 -264
47 -305 45 -19 73 -18 117 5 35 18 37 18 42 0 5 -14 13 -17 43 -12 20 3 37 6
37 7 0 1 -1 121 -3 269 l-3 267 -47 0 -47 0 3 -99z m-18 -163 c17 -18 20 -35
20 -110 0 -87 0 -88 -29 -103 -36 -18 -72 -8 -96 29 -32 49 -14 183 27 199 29
12 58 6 78 -15z"/>
<path d="M2435 1870 c-37 -41 11 -104 61 -81 50 23 34 101 -21 101 -12 0 -30
-9 -40 -20z"/>
<path d="M2770 1881 c-117 -25 -189 -122 -190 -257 0 -160 74 -254 213 -270
57 -7 144 12 181 39 19 14 19 15 -3 45 l-22 31 -36 -25 c-24 -16 -50 -24 -77
-24 -95 0 -151 78 -151 210 1 84 18 127 68 164 35 26 113 27 151 3 35 -23 41
-22 66 13 l22 30 -44 19 c-51 23 -129 32 -178 22z"/>
<path d="M1099 1876 c-2 -2 -3 -119 -1 -260 l3 -256 39 0 40 0 2 186 3 186 69
-186 c65 -177 69 -186 95 -186 25 0 29 9 91 182 l65 181 3 -182 2 -181 50 0
50 0 0 260 0 261 -62 -3 -62 -3 -22 -58 c-13 -32 -42 -115 -66 -184 -40 -119
-43 -123 -51 -91 -5 18 -34 102 -64 186 l-56 152 -62 0 c-34 0 -64 -2 -66 -4z"/>
<path d="M1749 1697 c-96 -65 -115 -204 -39 -291 49 -55 146 -70 225 -34 28
13 31 25 11 51 -13 17 -16 17 -45 3 -36 -19 -80 -20 -103 -2 -15 11 -48 74
-48 91 0 3 41 5 91 5 114 0 129 7 129 63 0 111 -128 177 -221 114z m119 -49
c7 -7 12 -25 12 -40 0 -28 -1 -28 -60 -28 -50 0 -60 3 -60 17 0 45 78 81 108
51z"/>
<path d="M3125 1713 c-11 -3 -35 -12 -52 -20 -32 -15 -32 -16 -18 -44 l15 -29
38 20 c68 37 102 25 102 -35 l0 -42 -48 -5 c-67 -7 -104 -27 -125 -70 -38 -78
22 -148 113 -133 21 4 46 15 56 26 18 20 18 20 35 -2 17 -22 55 -28 100 -14
31 10 22 49 -13 53 l-26 3 -4 119 c-3 114 -4 121 -30 146 -20 20 -38 27 -75
30 -26 1 -57 0 -68 -3z m85 -231 c0 -54 -67 -82 -94 -40 -18 29 20 60 82 67 7
0 12 -11 12 -27z"/>
<path d="M3413 1713 c-30 -4 -31 -6 -23 -29 6 -14 10 -93 10 -175 l0 -149 45
0 45 0 0 108 c0 100 2 110 23 130 12 11 34 25 48 31 20 7 28 19 33 46 4 21 5
39 3 41 -8 9 -63 -18 -89 -44 -27 -25 -28 -25 -28 -5 0 31 -10 53 -24 51 -6 0
-25 -3 -43 -5z"/>
<path d="M3714 1706 c-17 -8 -44 -31 -60 -52 -24 -31 -29 -48 -32 -108 -4 -84
15 -128 67 -163 47 -32 96 -38 161 -22 58 15 70 31 46 62 -13 17 -16 17 -45 3
-48 -25 -85 -21 -115 15 -14 17 -26 41 -26 54 0 22 3 23 99 27 55 1 103 7 107
11 14 14 6 87 -13 120 -34 59 -120 83 -189 53z m112 -71 c27 -41 13 -55 -56
-55 -67 0 -74 9 -39 54 27 35 72 35 95 1z"/>
<path d="M2430 1535 l0 -175 45 0 45 0 0 175 0 175 -45 0 -45 0 0 -175z"/>
<path d="M1768 1030 c3 -111 22 -158 22 -55 l0 55 55 0 55 0 0 -55 c0 -30 5
-55 10 -55 6 0 10 43 10 110 0 67 -4 110 -10 110 -5 0 -10 -22 -10 -50 l0 -50
-55 0 -55 0 0 50 c0 33 -4 50 -12 50 -10 0 -12 -27 -10 -110z"/>
<path d="M2014 1126 c-31 -22 -47 -70 -41 -119 15 -114 161 -117 182 -4 8 39
-8 99 -30 117 -24 20 -88 23 -111 6z m100 -28 c22 -31 21 -110 -1 -136 -29
-33 -57 -36 -89 -9 -24 21 -28 32 -28 75 0 63 22 92 70 92 23 0 38 -7 48 -22z"/>
<path d="M2209 1119 c-33 -33 -18 -63 51 -101 25 -14 31 -23 28 -45 -3 -26 -6
-28 -50 -27 -48 0 -62 -8 -32 -20 31 -12 74 -6 94 14 37 37 21 74 -49 112 -24
13 -32 24 -29 40 2 19 10 23 38 25 54 2 56 3 40 13 -25 16 -69 11 -91 -11z"/>
<path d="M2360 1031 c0 -67 4 -111 10 -111 6 0 10 20 10 45 0 45 0 45 35 45
61 0 95 58 62 104 -9 12 -31 20 -65 24 l-52 5 0 -112z m101 68 c15 -29 -3 -66
-35 -75 -36 -9 -46 2 -46 52 0 44 0 44 35 44 25 0 37 -6 46 -21z"/>
<path d="M2530 1030 c0 -91 3 -110 15 -110 12 0 15 19 15 110 0 91 -3 110 -15
110 -12 0 -15 -19 -15 -110z"/>
<path d="M2600 1130 c0 -5 14 -10 30 -10 l30 0 0 -100 c0 -82 3 -100 15 -100
12 0 15 18 15 100 l0 100 30 0 c17 0 30 5 30 10 0 6 -32 10 -75 10 -43 0 -75
-4 -75 -10z"/>
<path d="M2811 1042 c-19 -53 -36 -103 -38 -109 -3 -7 0 -13 6 -13 5 0 16 18
22 40 12 40 14 41 52 38 36 -3 42 -7 52 -37 6 -19 17 -37 25 -39 8 -3 11 1 8
9 -3 8 -20 58 -38 112 -18 53 -38 97 -44 97 -6 0 -26 -44 -45 -98z m69 -14 c0
-13 -8 -18 -31 -18 -33 0 -33 3 -6 70 l9 25 14 -30 c7 -16 13 -38 14 -47z"/>
<path d="M2980 1030 l0 -110 60 0 c33 0 60 4 60 10 0 6 -22 10 -50 10 l-50 0
0 100 c0 60 -4 100 -10 100 -6 0 -10 -43 -10 -110z"/>
<path d="M3147 1122 c-24 -27 -21 -58 9 -79 68 -48 79 -61 68 -80 -7 -12 -25
-19 -50 -20 -59 -2 -60 -3 -44 -13 23 -15 73 -12 98 6 17 12 22 24 20 47 -2
25 -12 36 -48 57 -34 20 -45 32 -45 51 0 22 4 24 43 24 43 0 54 8 26 19 -29
11 -61 6 -77 -12z"/>
</g>
</svg>
